<?xml version="1.0" encoding="utf-8"?>
<svg version="1.1" xmlns:xlink="http://www.w3.org/1999/xlink" width="40px" height="50px" xmlns="http://www.w3.org/2000/svg">
  <defs>
    <filter x="-4px" y="-4px" width="40px" height="50px" filterUnits="userSpaceOnUse" id="filter1">
      <feOffset dx="1" dy="1" in="SourceAlpha" result="shadowOffsetInner" />
      <feGaussianBlur stdDeviation="2.5" in="shadowOffsetInner" result="shadowGaussian" />
      <feComposite in2="shadowGaussian" operator="atop" in="SourceAlpha" result="shadowComposite" />
      <feColorMatrix type="matrix" values="0 0 0 0 0  0 0 0 0 0  0 0 0 0 0  0 0 0 0.6980392156862745 0  " in="shadowComposite" />
    </filter>
    <g id="widget2">
      <path d="M 15 39.036928468353594  C 9.2 29.407340595909908  0.5 23.629587872443693  0.5 14  C 0.5 8.985714285714286  3.4000000000000004 0.4999999999999982  15 0.4999999999999982  C 26.6 0.4999999999999982  29.5 8.985714285714286  29.5 14  C 29.5 23.629587872443693  20.8 29.407340595909908  15 39.036928468353594  Z " fill-rule="nonzero" fill="#009dd9" stroke="none" />
      <path d="M 15 40  C 9 30  0 24  0 14  C 0 8.799999999999999  3 0  15 0  C 27 0  30 8.799999999999999  30 14  C 30 24  21 30  15 40  Z M 15 38.07385693670719  C 20.6 28.814681191819812  29 23.25917574488738  29 14  C 29 9.171428571428573  26.2 1.0000000000000009  15 1.0000000000000009  C 3.8000000000000003 1.0000000000000009  1 9.171428571428573  1 14  C 1 23.25917574488738  9.399999999999999 28.814681191819812  15 38.07385693670719  Z " fill-rule="nonzero" fill="#ffffff" stroke="none" />
    </g>
  </defs>
  <g transform="matrix(1 0 0 1 4 4 )">
    <use xlink:href="#widget2" filter="url(#filter1)" />
    <use xlink:href="#widget2" />
  </g>
</svg>